<?xml version="1.0" encoding="UTF-8"?> <svg xmlns="http://www.w3.org/2000/svg" width="261" height="18" viewBox="0 0 261 18" fill="none"> <path d="M4.55555 5.97389V12.0236C4.55504 12.4243 4.63358 12.8211 4.78667 13.1914C4.93976 13.5616 5.16439 13.898 5.4477 14.1813C5.731 14.4646 6.06741 14.6893 6.43767 14.8423C6.80792 14.9954 7.20473 15.074 7.60539 15.0735H26.1618V17.9927H6.95624C2.00506 17.9927 0 14.117 0 10.2836V7.71007C0 3.87665 2.00506 0.000976562 6.94087 0.000976562H25.8353C25.9219 0.000976563 26.0049 0.0353749 26.0661 0.0966044C26.1274 0.157834 26.1618 0.240879 26.1618 0.32747V2.59756C26.1618 2.68415 26.1274 2.7672 26.0661 2.82843C26.0049 2.88966 25.9219 2.92406 25.8353 2.92406H7.60539C7.20473 2.92355 6.80792 3.00209 6.43767 3.15518C6.06741 3.30827 5.731 3.5329 5.4477 3.81621C5.16439 4.09951 4.93976 4.43592 4.78667 4.80617C4.63358 5.17643 4.55504 5.57324 4.55555 5.97389V5.97389Z" fill="#0541B6"></path> <path d="M245.266 5.97298V12.0227C245.266 12.4232 245.345 12.8198 245.499 13.1898C245.652 13.5599 245.876 13.8961 246.16 14.1793C246.732 14.7512 247.507 15.0726 248.316 15.0726H260.404C260.49 15.0736 260.572 15.1084 260.633 15.1695C260.693 15.2307 260.727 15.3131 260.727 15.3991V17.6691C260.727 17.7551 260.693 17.8375 260.633 17.8987C260.572 17.9598 260.49 17.9946 260.404 17.9956H241.506C236.57 17.9956 233.797 13.3517 233.797 9.51832V8.48122C233.797 4.64012 236.57 0.00390625 241.506 0.00390625H260.404C260.49 0.00491719 260.572 0.0397613 260.633 0.100882C260.693 0.162002 260.727 0.24447 260.727 0.3304V2.59665C260.727 2.68258 260.693 2.76505 260.633 2.82617C260.572 2.88729 260.49 2.92213 260.404 2.92315H248.316C247.507 2.92315 246.732 3.24447 246.16 3.81642C245.588 4.38838 245.266 5.16412 245.266 5.97298V5.97298Z" fill="#0541B6"></path> <path d="M214.17 0.000488281H204.202C204.022 0.000488281 203.876 0.146665 203.876 0.326982V17.6657C203.876 17.846 204.022 17.9922 204.202 17.9922H214.17C214.35 17.9922 214.497 17.846 214.497 17.6657V0.326982C214.497 0.146665 214.35 0.000488281 214.17 0.000488281Z" fill="#0541B6"></path> <path d="M236.013 17.4237L224.382 6.99898C224.344 6.96434 224.314 6.92109 224.296 6.87279C224.277 6.82449 224.271 6.77251 224.276 6.72114C224.282 6.66976 224.3 6.62045 224.328 6.57727C224.356 6.53409 224.395 6.49827 224.44 6.47275L234.78 0.611225C234.843 0.575707 234.892 0.520363 234.92 0.453846C234.948 0.38733 234.953 0.313393 234.935 0.243599C234.916 0.173804 234.875 0.112087 234.818 0.0681001C234.761 0.0241133 234.691 0.000336743 234.619 0.000489008H228.292C228.069 0.000464881 227.849 0.0587151 227.655 0.169498L216.323 6.59951C216.273 6.62834 216.232 6.66975 216.203 6.71962C216.174 6.76949 216.159 6.82607 216.158 6.88375V9.0002C216.158 9.04585 216.167 9.09102 216.186 9.13273C216.205 9.17445 216.232 9.21175 216.266 9.24219L225.661 17.6696C225.897 17.8821 226.204 17.9998 226.521 17.9999H235.798C235.865 18.0009 235.931 17.981 235.987 17.943C236.042 17.905 236.085 17.8507 236.108 17.7876C236.132 17.7245 236.135 17.6557 236.118 17.5905C236.101 17.5254 236.064 17.4671 236.013 17.4237V17.4237Z" fill="#0541B6"></path> <path d="M194.517 0.000488281H175.619C175.533 0.00149922 175.451 0.0363434 175.39 0.0974636C175.33 0.158584 175.296 0.241052 175.296 0.326982V2.59707C175.296 2.683 175.33 2.76547 175.39 2.82659C175.451 2.88771 175.533 2.92256 175.619 2.92357H187.707C188.515 2.92357 189.291 3.24489 189.863 3.81684C190.435 4.3888 190.756 5.16454 190.756 5.9734V6.7762H175.622C175.536 6.7762 175.453 6.81059 175.392 6.87182C175.33 6.93305 175.296 7.0161 175.296 7.10269V9.36894C175.296 9.45553 175.33 9.53858 175.392 9.59981C175.453 9.66104 175.536 9.69543 175.622 9.69543H190.756V12.0231C190.756 12.4237 190.677 12.8202 190.524 13.1903C190.371 13.5603 190.146 13.8965 189.863 14.1797C189.58 14.4629 189.244 14.6876 188.874 14.8408C188.504 14.9941 188.107 15.073 187.707 15.073H175.619C175.533 15.074 175.451 15.1088 175.39 15.17C175.33 15.2311 175.296 15.3135 175.296 15.3995V17.6696C175.296 17.7555 175.33 17.838 175.39 17.8991C175.451 17.9602 175.533 17.995 175.619 17.9961H194.517C199.453 17.9961 202.226 13.3522 202.226 9.51874V8.48165C202.226 4.64438 199.453 0.000488281 194.517 0.000488281Z" fill="#0541B6"></path> <path d="M173.639 8.4778V17.6696C173.638 17.7558 173.603 17.8383 173.542 17.8993C173.481 17.9603 173.399 17.9951 173.313 17.9961H163.345C163.302 17.9961 163.26 17.9876 163.22 17.9712C163.18 17.9548 163.144 17.9307 163.114 17.9004C163.084 17.8701 163.06 17.8341 163.043 17.7945C163.027 17.7549 163.018 17.7124 163.018 17.6696V5.9734C163.018 5.16454 162.697 4.3888 162.125 3.81684C161.553 3.24489 160.777 2.92357 159.969 2.92357H155.528C155.485 2.92357 155.443 2.93201 155.403 2.94842C155.364 2.96483 155.328 2.98888 155.297 3.0192C155.267 3.04951 155.243 3.08551 155.227 3.12512C155.21 3.16473 155.202 3.20719 155.202 3.25006V17.6696C155.201 17.7558 155.166 17.8383 155.105 17.8993C155.044 17.9603 154.962 17.9951 154.875 17.9961H144.908C144.865 17.9961 144.822 17.9876 144.783 17.9712C144.743 17.9548 144.707 17.9307 144.677 17.9004C144.646 17.8701 144.622 17.8341 144.606 17.7945C144.589 17.7549 144.581 17.7124 144.581 17.6696V0.326982C144.581 0.240391 144.615 0.157346 144.677 0.0961161C144.738 0.0348866 144.821 0.000488281 144.908 0.000488281L165.938 0.000488281C170.866 0.000488281 173.639 4.64438 173.639 8.4778Z" fill="#0541B6"></path> <path d="M83.0566 9.5149V0.000488281H93.6773V12.0193C93.6773 12.8282 93.9986 13.6039 94.5706 14.1759C95.1425 14.7478 95.9183 15.0691 96.7271 15.0691H101.167C101.254 15.0691 101.337 15.0347 101.398 14.9735C101.46 14.9123 101.494 14.8292 101.494 14.7426V0.000488281H112.115V17.9922H90.7657C85.8299 17.9922 83.0566 13.3483 83.0566 9.5149Z" fill="#0541B6"></path> <path d="M142.593 0.000565409H132.606C132.52 0.000565409 132.437 0.0349638 132.376 0.0961932C132.314 0.157423 132.28 0.240468 132.28 0.327059V6.77627H124.394V0.327059C124.394 0.240468 124.36 0.157423 124.298 0.0961932C124.237 0.0349638 124.154 0.000565409 124.068 0.000565409H114.1C114.013 0.000565409 113.93 0.0349638 113.869 0.0961932C113.808 0.157423 113.773 0.240468 113.773 0.327059V17.6696C113.773 17.7125 113.782 17.755 113.798 17.7946C113.815 17.8342 113.839 17.8702 113.869 17.9005C113.899 17.9308 113.935 17.9549 113.975 17.9713C114.015 17.9877 114.057 17.9961 114.1 17.9961H124.068C124.11 17.9961 124.153 17.9877 124.193 17.9713C124.232 17.9549 124.268 17.9308 124.298 17.9005C124.329 17.8702 124.353 17.8342 124.369 17.7946C124.386 17.755 124.394 17.7125 124.394 17.6696V9.69551H132.299V17.6696C132.299 17.7125 132.308 17.755 132.324 17.7946C132.34 17.8342 132.364 17.8702 132.395 17.9005C132.425 17.9308 132.461 17.9549 132.501 17.9713C132.54 17.9877 132.583 17.9961 132.626 17.9961H142.612C142.655 17.9961 142.698 17.9877 142.737 17.9713C142.777 17.9549 142.813 17.9308 142.843 17.9005C142.874 17.8702 142.898 17.8342 142.914 17.7946C142.93 17.755 142.939 17.7125 142.939 17.6696V0.327059C142.939 0.282518 142.93 0.238433 142.912 0.197515C142.895 0.156597 142.869 0.119711 142.837 0.0891285C142.804 0.0585457 142.766 0.0349119 142.724 0.0196813C142.682 0.00445066 142.638 -0.00205471 142.593 0.000565409V0.000565409Z" fill="#0541B6"></path> <path d="M54.1213 0.326982V17.6696C54.1213 17.7124 54.1128 17.7549 54.0964 17.7945C54.08 17.8341 54.056 17.8701 54.0256 17.9004C53.9953 17.9307 53.9593 17.9548 53.9197 17.9712C53.8801 17.9876 53.8376 17.9961 53.7948 17.9961H35.5265C30.5907 17.9961 27.8174 13.3522 27.8174 9.51874V0.326982C27.8174 0.284106 27.8258 0.24165 27.8422 0.202038C27.8586 0.162426 27.8827 0.126434 27.913 0.0961161C27.9433 0.0657984 27.9793 0.041749 28.0189 0.0253411C28.0585 0.00893329 28.101 0.000488281 28.1439 0.000488281L32.0464 0.000488281C32.133 0.000488281 32.2161 0.0348866 32.2773 0.0961161C32.3385 0.157346 32.3729 0.240391 32.3729 0.326982V11.7581C32.3729 12.6373 32.7222 13.4804 33.3438 14.1021C33.9655 14.7237 34.8086 15.073 35.6878 15.073H48.7476C48.7904 15.073 48.8329 15.0645 48.8725 15.0481C48.9121 15.0317 48.9481 15.0077 48.9784 14.9774C49.0087 14.947 49.0328 14.911 49.0492 14.8714C49.0656 14.8318 49.0741 14.7894 49.0741 14.7465V0.326982C49.0741 0.240391 49.1085 0.157346 49.1697 0.0961161C49.2309 0.0348866 49.314 0.000488281 49.4005 0.000488281L53.8101 0.000488281C53.894 0.0044409 53.9732 0.0405765 54.0311 0.101383C54.0891 0.162189 54.1214 0.242988 54.1213 0.326982V0.326982Z" fill="#0541B6"></path> <path d="M81.0153 2.59323V0.326982C81.0153 0.240391 80.9809 0.157346 80.9197 0.0961161C80.8585 0.0348866 80.7754 0.000488281 80.6889 0.000488281L56.1058 0.000488281C56.0195 0.00148586 55.937 0.0362045 55.876 0.0972191C55.815 0.158234 55.7803 0.2407 55.7793 0.326982V17.6696C55.7803 17.7558 55.815 17.8383 55.876 17.8993C55.937 17.9603 56.0195 17.9951 56.1058 17.9961H75.7953C77.2826 17.9961 78.709 17.4052 79.7608 16.3535C80.8125 15.3018 81.4033 13.8754 81.4033 12.388C81.4033 10.9007 80.8125 9.47429 79.7608 8.42259C78.709 7.37088 77.2826 6.78004 75.7953 6.78004H68.3128C68.2262 6.78004 68.1432 6.81444 68.082 6.87566C68.0207 6.93689 67.9863 7.01994 67.9863 7.10653V9.37278C67.9863 9.45937 68.0207 9.54242 68.082 9.60365C68.1432 9.66488 68.2262 9.69928 68.3128 9.69928H72.538C73.2511 9.69928 73.935 9.98256 74.4393 10.4868C74.9435 10.991 75.2268 11.6749 75.2268 12.388V12.388C75.2268 13.1012 74.9435 13.7851 74.4393 14.2893C73.935 14.7935 73.2511 15.0768 72.538 15.0768H61.1645C61.0782 15.0758 60.9958 15.0411 60.9348 14.9801C60.8737 14.9191 60.839 14.8366 60.838 14.7503V3.24622C60.839 3.15994 60.8737 3.07747 60.9348 3.01646C60.9958 2.95544 61.0782 2.92072 61.1645 2.91973H80.6889C80.7754 2.91973 80.8585 2.88533 80.9197 2.8241C80.9809 2.76287 81.0153 2.67982 81.0153 2.59323Z" fill="#0541B6"></path> </svg> 